<svg width="179" height="180" viewBox="0 0 179 180" fill="none" xmlns="http://www.w3.org/2000/svg">
<rect width="179" height="180" rx="19" fill="#6143B3"/>
<path d="M21.3915 74.4333C21.3915 75.5508 21.1668 76.5381 20.7173 77.3942C20.2678 78.2504 19.6257 78.9104 18.79 79.3723C17.9544 79.8343 16.976 80.0662 15.8541 80.0662H13.5933L15.5785 70.6751H17.7751C18.9568 70.6751 19.8549 70.9953 20.4702 71.6356C21.0847 72.276 21.3915 73.2088 21.3915 74.4333ZM15.9254 79.1226C16.7905 79.1226 17.5504 78.9264 18.2059 78.5349C18.8614 78.1434 19.3635 77.5895 19.7122 76.8743C20.0609 76.159 20.2357 75.3412 20.2357 74.4208C20.2357 73.5005 20.0154 72.803 19.5739 72.3304C19.1325 71.8568 18.4859 71.6205 17.6342 71.6205H16.4908L14.8846 79.1235H15.9254V79.1226Z" fill="white"/>
<path d="M24.9634 80.1955C24.1759 80.1955 23.557 79.9619 23.1066 79.4954C22.6571 79.029 22.4324 78.3824 22.4324 77.5557C22.4324 76.7289 22.592 75.9789 22.9113 75.2396C23.2306 74.5011 23.6533 73.9259 24.1795 73.5148C24.7066 73.1036 25.2863 72.8985 25.9204 72.8985C26.5545 72.8985 27.0682 73.0412 27.3981 73.3257C27.7281 73.6102 27.8931 74.0079 27.8931 74.5172C27.8931 75.2877 27.5373 75.8933 26.8265 76.3321C26.1157 76.7709 25.0981 76.9903 23.7755 76.9903H23.5632L23.5374 77.504C23.5374 78.0649 23.6694 78.5028 23.9324 78.8176C24.1955 79.1325 24.604 79.2894 25.156 79.2894C25.4263 79.2894 25.7027 79.2511 25.9881 79.1735C26.2726 79.0968 26.6276 78.955 27.0512 78.7499V79.6881C26.649 79.8762 26.2931 80.0082 25.9846 80.0832C25.676 80.1581 25.3362 80.1955 24.9634 80.1955ZM25.8561 73.8162C25.4147 73.8162 25.0009 74.0178 24.6129 74.42C24.225 74.8222 23.9289 75.3814 23.7229 76.0966H23.7996C24.7761 76.0966 25.5244 75.9691 26.0443 75.714C26.5643 75.459 26.8247 75.0897 26.8247 74.6064C26.8247 74.3798 26.7462 74.1908 26.5901 74.0409C26.4341 73.8911 26.1888 73.8162 25.8544 73.8162H25.8561Z" fill="white"/>
<path d="M33.0121 78.0694C33.0121 78.7373 32.7758 79.2591 32.3022 79.6336C31.8286 80.0082 31.1615 80.1955 30.3009 80.1955C29.5776 80.1955 28.9239 80.0475 28.3416 79.7523V78.7373C28.6412 78.9175 28.9649 79.0566 29.3119 79.1547C29.6588 79.2537 29.9799 79.3028 30.2751 79.3028C30.8146 79.3028 31.2213 79.1958 31.496 78.9817C31.7698 78.7677 31.9071 78.4939 31.9071 78.1594C31.9071 77.9151 31.8322 77.7099 31.6824 77.5432C31.5326 77.3764 31.2088 77.1472 30.7121 76.8556C30.1556 76.5434 29.7614 76.2366 29.5304 75.937C29.2994 75.6373 29.1834 75.2815 29.1834 74.8703C29.1834 74.279 29.3993 73.8028 29.8318 73.4407C30.2644 73.0786 30.8342 72.8976 31.5406 72.8976C32.2469 72.8976 32.9791 73.0563 33.6605 73.3729L33.3136 74.2532L32.9541 74.0926C32.5216 73.9089 32.0507 73.8162 31.5406 73.8162C31.1419 73.8162 30.8298 73.9089 30.6024 74.0953C30.3749 74.2817 30.2617 74.5225 30.2617 74.8177C30.2617 75.0576 30.3375 75.2627 30.49 75.434C30.6416 75.6052 30.9555 75.8255 31.4309 76.0957C31.8893 76.3526 32.2175 76.5729 32.4173 76.7575C32.6161 76.9421 32.7651 77.1401 32.8632 77.3514C32.9613 77.5628 33.0112 77.8018 33.0112 78.0676L33.0121 78.0694Z" fill="white"/>
<path d="M38.0286 72.8976C38.4228 72.8976 38.7741 73.0037 39.0818 73.216C39.3895 73.4282 39.6303 73.7332 39.8015 74.131H39.872L40.3028 73.026H41.1188L39.6223 80.0662H38.7679L38.9347 78.724H38.8829C38.116 79.705 37.3088 80.1946 36.4616 80.1946C35.8667 80.1946 35.3994 79.9824 35.0614 79.5587C34.7234 79.1351 34.554 78.5545 34.554 77.8179C34.554 76.9269 34.7056 76.1011 35.0097 75.3385C35.3138 74.576 35.733 73.9794 36.269 73.546C36.8041 73.1134 37.3909 72.8976 38.0295 72.8976H38.0286ZM36.8085 79.3028C37.2241 79.3028 37.637 79.1048 38.0482 78.7088C38.4593 78.3128 38.7938 77.7965 39.0506 77.1606C39.3075 76.5247 39.4359 75.8879 39.4359 75.2494C39.4359 74.8079 39.3164 74.4574 39.0765 74.1961C38.8366 73.9348 38.5218 73.8046 38.132 73.8046C37.687 73.8046 37.2723 73.9892 36.8888 74.3566C36.5053 74.725 36.2048 75.2235 35.9863 75.8531C35.7678 76.4828 35.6589 77.1463 35.6589 77.8446C35.6589 78.3325 35.7597 78.6981 35.9613 78.9398C36.1628 79.1815 36.4455 79.3028 36.8094 79.3028H36.8085Z" fill="white"/>
<path d="M40.6884 83.2269C40.3932 83.2269 40.1256 83.1823 39.8857 83.0922V82.1861C40.1595 82.2806 40.3994 82.327 40.6055 82.327C40.931 82.327 41.1816 82.1941 41.3573 81.9284C41.533 81.6626 41.6739 81.2836 41.7809 80.7913L43.2391 73.8412H41.9994L42.0832 73.4104L43.4067 72.9868L43.5548 72.3446C43.7519 71.4885 44.0248 70.8829 44.3735 70.5298C44.7222 70.1766 45.2395 70 45.9244 70C46.0956 70 46.3052 70.025 46.554 70.074C46.802 70.1231 46.9955 70.1775 47.1319 70.2381L46.8555 71.0666C46.5299 70.9427 46.2365 70.8802 45.9752 70.8802C45.6024 70.8802 45.317 70.9837 45.1182 71.1915C44.9193 71.3993 44.757 71.7792 44.633 72.3313L44.4725 73.0251H46.0011L45.8406 73.8412H44.3182L42.8279 80.8947C42.6611 81.7045 42.4043 82.2949 42.0574 82.6677C41.7104 83.0405 41.2547 83.2269 40.6893 83.2269H40.6884ZM46.9455 80.0671H45.8664L47.3692 73.0269H48.4483L46.9455 80.0671ZM47.6715 71.2281C47.6715 70.9882 47.7402 70.792 47.8766 70.6403C48.014 70.4887 48.1914 70.412 48.4099 70.412C48.7863 70.412 48.9754 70.6047 48.9754 70.9899C48.9754 71.2254 48.904 71.4243 48.7604 71.5875C48.6168 71.7507 48.451 71.8318 48.2628 71.8318C48.0916 71.8318 47.9506 71.7792 47.8392 71.6749C47.7277 71.5696 47.6724 71.4207 47.6724 71.2281H47.6715Z" fill="white"/>
<path d="M52.9706 72.9368C53.784 72.9368 54.427 73.1776 54.8979 73.6592C55.3688 74.1408 55.6042 74.8034 55.6042 75.6471C55.6042 76.4908 55.4499 77.2123 55.1413 77.9275C54.8328 78.6428 54.4154 79.1948 53.8883 79.5846C53.3612 79.9743 52.7664 80.1687 52.1028 80.1687C51.2806 80.1687 50.6358 79.927 50.1693 79.4427C49.7029 78.9585 49.4692 78.2976 49.4692 77.4575C49.4692 76.6174 49.6253 75.8781 49.9383 75.161C50.2505 74.444 50.6732 73.8937 51.2039 73.5102C51.7345 73.1267 52.324 72.935 52.9706 72.935V72.9368ZM54.4867 75.4999C54.4867 75.0076 54.3529 74.6081 54.0854 74.3022C53.8178 73.9963 53.4549 73.8429 52.9965 73.8429C52.5381 73.8429 52.1109 74.0016 51.7408 74.3182C51.3697 74.6348 51.0835 75.0754 50.8801 75.6382C50.6768 76.2009 50.5751 76.8279 50.5751 77.5173C50.5751 78.0782 50.7107 78.5117 50.9827 78.8185C51.2547 79.1244 51.6453 79.2778 52.1546 79.2778C52.5996 79.2778 53 79.1217 53.3559 78.8087C53.7117 78.4965 53.9891 78.0515 54.188 77.4754C54.3868 76.8992 54.4867 76.241 54.4867 75.4999Z" fill="white"/>
<path d="M11 103.091L14.298 84.2016C14.4077 84.075 16.9022 83.6692 17.3633 83.6139C21.983 83.0618 30.2771 83.2589 31.2269 89.2218C32.257 95.684 27.3947 99.774 21.4131 100.38C20.5998 100.462 18.1882 100.183 17.7468 100.501C17.2224 100.878 17.5283 103.39 16.7863 103.612L11 103.091ZM18.5833 94.9599C21.9045 95.9364 25.5298 94.1091 24.7914 90.2447C24.4739 88.5832 20.3242 87.9571 19.7142 88.8089C19.2192 89.5009 18.9757 93.8379 18.5833 94.959V94.9599Z" fill="white"/>
<path d="M88.6472 102.279C89.2233 107.131 95.1469 106.191 98.6608 105.392C101.467 104.754 103.907 103.3 106.424 102.603C106.755 102.511 107.255 102.436 107.042 102.951C106.643 103.918 101.624 107.421 100.467 108.01C96.1565 110.205 90.6744 111.058 86.2963 108.552C79.8055 104.839 81.8273 94.7387 87.6493 91.405C92.6257 88.5556 100.996 89.7819 99.9861 96.979C99.3038 101.845 92.4589 102.145 88.6472 102.279ZM89.1895 97.4071C90.4461 97.5659 94.6083 97.5561 94.0214 95.437C93.5069 93.5802 88.7355 95.2061 89.1895 97.4071Z" fill="white"/>
<path d="M74.5792 82.2574L71.877 97.136L77.1495 90.3741H84.8604L77.3582 98.0813L80.2611 104.711C80.0328 104.931 74.2519 105.312 73.9469 105.212C73.2977 104.996 72.9195 102.831 72.4763 102.079C72.3782 101.914 72.462 101.552 72.0134 101.74C70.4679 102.384 70.3002 105.525 69.8453 105.525H63.7585L68.0875 82.2574H74.581H74.5792Z" fill="white"/>
<path d="M40.4441 89.8969C47.3648 89.6909 50.2624 95.4379 48.3485 101.614C47.941 102.93 46.8119 105.649 45.2289 105.553L30.1996 104.588C27.615 97.6247 33.0633 90.1172 40.4441 89.8978V89.8969ZM41.4956 95.3238C40.9338 94.8609 39.53 94.835 38.8718 95.1151C36.7956 95.998 34.9165 102.857 37.3076 103.971C41.4644 105.907 43.5094 96.9817 41.4956 95.3238Z" fill="white"/>
<path d="M50.0947 105.525C45.6275 95.9231 55.5545 87.9607 64.8314 90.3821C65.2836 90.8521 63.5695 94.6665 63.4803 95.5155C59.896 94.3936 56.0254 96.2673 55.8979 100.24C55.7561 104.655 59.1263 104.124 62.4021 103.361L62.4039 105.525H50.0938H50.0947Z" fill="white"/>
<path d="M110.56 85.2344L109.751 90.3723H113.268C113.456 90.5614 112.722 94.6737 112.436 95.0893C111.794 96.0239 109.001 95.2177 108.68 95.5272C108.515 95.6868 108.468 98.5523 107.735 99.3166C107.289 99.7812 101.357 102.248 101.093 102.005L102.445 95.5173L100.28 95.5147C100.378 94.8297 100.918 90.5685 101.104 90.3884C101.27 90.2278 103.404 90.507 103.528 90.3759C103.649 90.2484 103.6 87.4203 104.122 86.9093L110.559 85.2353L110.56 85.2344Z" fill="white"/>
<path d="M155.607 104.983C155.461 104.958 155.136 104.81 154.973 104.668C153.794 103.626 156.448 93.219 156.015 92.807C155.916 92.7124 155.026 92.9033 154.928 92.8097C154.816 92.7035 154.883 90.9145 155.336 90.9145C155.336 90.9145 160.029 90.6327 161.559 90.9145C162.771 91.1375 163.966 91.5539 164.413 91.8474C167.929 94.1554 167.569 99.8231 165.082 102.553C164.281 103.433 161.586 104.878 160.477 104.982C159.094 105.113 156.847 105.191 155.607 104.982V104.983ZM157.094 103.09C166.046 104.791 168.363 91.4434 158.176 92.807L157.094 103.09Z" fill="white"/>
<path d="M149.925 90.9154C152.991 91.4238 153.691 94.5871 152.282 97.0593C151.863 97.7933 150.409 98.7502 150.367 98.9232C150.318 99.1257 151.681 102.659 151.825 102.821C152.356 103.423 153.178 102.714 152.768 104.985C148.795 105.963 149.64 101.623 148.195 99.7402C148.007 99.4949 145.555 99.4699 145.461 99.5716C145.274 99.7696 145.108 104.787 144.921 104.985C144.837 105.074 143.152 104.922 142.755 104.985L144.111 92.8097C142.432 93.4973 142.966 90.9154 143.433 90.9154C145.258 90.9154 148.29 90.6443 149.926 90.9154H149.925ZM145.731 97.6782C151.671 98.9482 153.12 91.6441 146.287 92.8231L145.731 97.6782Z" fill="white"/>
<path d="M140.116 103.044C140.277 103.187 140.795 102.95 140.881 103.238C141.4 104.975 140.096 105.261 138.673 104.864C137.691 104.59 137.536 101.89 137.334 100.939C136.216 101.098 133.05 100.558 132.337 101.193C131.104 102.29 131.444 105.889 128.146 104.985C128.111 103.492 127.8 103.263 129.204 102.662C130.181 101.336 134.4 91.3052 134.954 90.9609C135.253 90.7745 136.955 90.8289 137.217 91.1794C137.913 92.6608 139.578 102.563 140.116 103.044ZM133.287 99.3023H137.075C136.629 97.6551 136.326 95.9757 135.984 94.3017C135.928 94.0271 136.191 93.4028 135.59 93.6195C135.3 93.7238 133.511 98.6049 133.287 99.3023Z" fill="white"/>
<path d="M128.419 95.2453C128.021 95.1811 126.337 95.3363 126.253 95.2444C126.111 95.0892 126.672 93.7934 125.232 93.153C119.808 90.7424 115.07 99.2541 119.779 102.394C122.341 104.104 124.533 102.538 126.901 101.444C128.617 103.048 126.36 104.009 124.896 104.573C116.126 107.956 112.5 97.2029 118.7 92.4253C121.91 89.9522 129.277 89.7079 128.418 95.2444L128.419 95.2453Z" fill="white"/>
</svg>
