<?xml version="1.0" encoding="UTF-8" standalone="no"?>
<svg
   xmlns:dc="http://purl.org/dc/elements/1.1/"
   xmlns:cc="http://creativecommons.org/ns#"
   xmlns:rdf="http://www.w3.org/1999/02/22-rdf-syntax-ns#"
   xmlns:svg="http://www.w3.org/2000/svg"
   xmlns="http://www.w3.org/2000/svg"
   viewBox="0 0 206.66667 53.333332"
   height="53.333332"
   width="206.66667"
   xml:space="preserve"
   id="svg2"
   version="1.1"><metadata
     id="metadata8"><rdf:RDF><cc:Work
         rdf:about=""><dc:format>image/svg+xml</dc:format><dc:type
           rdf:resource="http://purl.org/dc/dcmitype/StillImage" /></cc:Work></rdf:RDF></metadata><defs
     id="defs6"><clipPath
       id="clipPath18"
       clipPathUnits="userSpaceOnUse"><path
         id="path16"
         d="M 0,40 H 155 V 0 H 0 Z" /></clipPath></defs><g
     transform="matrix(1.3333333,0,0,-1.3333333,0,53.333333)"
     id="g10"><g
       id="g12"><g
         clip-path="url(#clipPath18)"
         id="g14"><g
           transform="translate(4.894,30.8485)"
           id="g20"><path
             id="path22"
             style="fill:#666666;fill-opacity:1;fill-rule:nonzero;stroke:none"
             d="m 0,0 c 0.859,0 1.615,0.195 2.266,0.584 0.651,0.389 1.15,0.939 1.497,1.65 0.346,0.71 0.52,1.523 0.52,2.438 0,0.915 -0.22,1.607 -0.658,2.077 C 3.187,7.22 2.544,7.455 1.698,7.455 H 0.562 L -1.034,0 Z M 5.432,4.659 C 5.432,3.549 5.208,2.568 4.761,1.717 4.315,0.866 3.676,0.211 2.847,-0.249 2.017,-0.708 1.045,-0.938 -0.07,-0.938 h -2.247 l 1.972,9.331 h 2.183 c 1.175,0 2.067,-0.318 2.678,-0.954 0.61,-0.636 0.916,-1.563 0.916,-2.78" /></g><g
           transform="translate(14.7613,36.1204)"
           id="g24"><path
             id="path26"
             style="fill:#666666;fill-opacity:1;fill-rule:nonzero;stroke:none"
             d="M 0,0 C -0.438,0 -0.85,-0.2 -1.235,-0.6 -1.62,-1 -1.915,-1.555 -2.119,-2.266 h 0.077 c 0.97,0 1.713,0.127 2.23,0.38 0.517,0.253 0.776,0.62 0.776,1.101 0,0.225 -0.078,0.413 -0.233,0.562 C 0.576,-0.074 0.332,0 0,0 m -0.887,-6.338 c -0.783,0 -1.398,0.232 -1.845,0.696 -0.446,0.464 -0.67,1.106 -0.67,1.927 0,0.8 0.159,1.567 0.476,2.301 0.317,0.734 0.737,1.306 1.26,1.714 0.524,0.408 1.1,0.613 1.73,0.613 0.651,0 1.14,-0.142 1.468,-0.425 0.327,-0.283 0.491,-0.677 0.491,-1.184 0,-0.766 -0.353,-1.367 -1.059,-1.803 -0.707,-0.436 -1.717,-0.654 -3.032,-0.654 h -0.211 l -0.025,-0.511 c 0,-0.557 0.131,-0.992 0.393,-1.305 0.261,-0.312 0.666,-0.469 1.215,-0.469 0.268,0 0.544,0.038 0.827,0.115 0.283,0.077 0.635,0.217 1.056,0.421 V -5.834 C 0.787,-6.021 0.434,-6.152 0.128,-6.226 -0.179,-6.3 -0.517,-6.338 -0.887,-6.338" /></g><g
           transform="translate(21.8714,31.8952)"
           id="g28"><path
             id="path30"
             style="fill:#666666;fill-opacity:1;fill-rule:nonzero;stroke:none"
             d="m 0,0 c 0,-0.664 -0.235,-1.182 -0.705,-1.554 -0.47,-0.373 -1.133,-0.559 -1.988,-0.559 -0.719,0 -1.368,0.147 -1.947,0.441 v 1.008 c 0.298,-0.178 0.619,-0.317 0.964,-0.415 0.344,-0.098 0.663,-0.146 0.957,-0.146 0.536,0 0.94,0.106 1.213,0.319 0.272,0.212 0.408,0.485 0.408,0.817 0,0.242 -0.074,0.446 -0.223,0.612 -0.149,0.166 -0.47,0.394 -0.964,0.683 -0.553,0.311 -0.945,0.615 -1.174,0.913 -0.23,0.298 -0.345,0.651 -0.345,1.059 0,0.588 0.215,1.061 0.645,1.421 0.43,0.359 0.995,0.539 1.697,0.539 0.728,0 1.43,-0.158 2.107,-0.472 L 0.3,3.791 -0.057,3.951 c -0.43,0.183 -0.898,0.274 -1.405,0.274 -0.395,0 -0.706,-0.092 -0.931,-0.277 -0.226,-0.186 -0.339,-0.425 -0.339,-0.718 0,-0.239 0.076,-0.443 0.227,-0.613 0.151,-0.17 0.463,-0.39 0.935,-0.658 0.455,-0.255 0.782,-0.474 0.98,-0.657 0.198,-0.183 0.345,-0.38 0.443,-0.59 C -0.049,0.501 0,0.264 0,0" /></g><g
           transform="translate(25.6434,30.6698)"
           id="g32"><path
             id="path34"
             style="fill:#666666;fill-opacity:1;fill-rule:nonzero;stroke:none"
             d="M 0,0 C 0.413,0 0.823,0.197 1.232,0.59 1.64,0.984 1.972,1.497 2.227,2.129 2.483,2.76 2.61,3.393 2.61,4.027 2.61,4.466 2.491,4.814 2.253,5.074 2.015,5.334 1.702,5.463 1.315,5.463 0.872,5.463 0.461,5.28 0.08,4.915 -0.301,4.549 -0.6,4.053 -0.817,3.427 -1.034,2.802 -1.142,2.142 -1.142,1.449 c 0,-0.485 0.099,-0.848 0.3,-1.088 C -0.642,0.12 -0.362,0 0,0 m 1.213,6.363 c 0.391,0 0.74,-0.105 1.046,-0.316 0.307,-0.21 0.545,-0.513 0.715,-0.909 h 0.07 L 3.472,6.236 H 4.283 L 2.796,-0.76 H 1.947 L 2.113,0.574 H 2.062 C 1.3,-0.4 0.498,-0.887 -0.345,-0.887 c -0.591,0 -1.055,0.21 -1.391,0.632 -0.336,0.421 -0.504,0.997 -0.504,1.729 0,0.885 0.151,1.707 0.453,2.464 0.302,0.757 0.719,1.351 1.251,1.781 0.532,0.429 1.115,0.644 1.749,0.644" /></g><g
           transform="translate(36.4362,38.6925)"
           id="g36"><path
             id="path38"
             style="fill:#666666;fill-opacity:1;fill-rule:nonzero;stroke:none"
             d="m 0,0 c 0,0.238 0.068,0.433 0.204,0.584 0.136,0.151 0.313,0.227 0.53,0.227 0.374,0 0.562,-0.192 0.562,-0.575 0,-0.234 -0.072,-0.432 -0.214,-0.593 C 0.939,-0.519 0.774,-0.6 0.587,-0.6 0.417,-0.6 0.277,-0.548 0.166,-0.444 0.055,-0.339 0,-0.191 0,0 m -0.721,-8.782 h -1.072 l 1.493,6.995 h 1.072 z m -6.217,-3.14 c -0.293,0 -0.559,0.044 -0.798,0.134 v 0.899 c 0.273,-0.093 0.511,-0.14 0.715,-0.14 0.324,0 0.573,0.132 0.747,0.396 0.175,0.264 0.315,0.64 0.421,1.129 l 1.449,6.906 h -1.232 l 0.083,0.428 1.315,0.421 0.147,0.638 c 0.195,0.851 0.467,1.452 0.814,1.804 0.346,0.351 0.86,0.526 1.541,0.526 0.17,0 0.379,-0.024 0.625,-0.073 0.247,-0.049 0.439,-0.104 0.575,-0.163 L -0.811,0.16 c -0.323,0.123 -0.614,0.185 -0.874,0.185 -0.37,0 -0.654,-0.104 -0.852,-0.31 -0.198,-0.206 -0.358,-0.584 -0.482,-1.133 l -0.159,-0.689 h 1.519 l -0.16,-0.811 h -1.513 l -1.48,-7.008 c -0.166,-0.804 -0.422,-1.391 -0.766,-1.761 -0.345,-0.37 -0.798,-0.555 -1.36,-0.555" /></g><g
           transform="translate(43.208,34.4482)"
           id="g40"><path
             id="path42"
             style="fill:#666666;fill-opacity:1;fill-rule:nonzero;stroke:none"
             d="m 0,0 c 0,0.489 -0.133,0.886 -0.399,1.19 -0.266,0.304 -0.626,0.457 -1.082,0.457 -0.463,0 -0.879,-0.158 -1.247,-0.473 -0.369,-0.315 -0.654,-0.752 -0.856,-1.311 -0.202,-0.56 -0.303,-1.182 -0.303,-1.867 0,-0.558 0.135,-0.988 0.405,-1.293 0.271,-0.304 0.659,-0.456 1.165,-0.456 0.443,0 0.84,0.155 1.194,0.466 0.353,0.311 0.628,0.752 0.826,1.324 C -0.099,-1.39 0,-0.736 0,0 m -1.506,2.547 c 0.808,0 1.446,-0.24 1.914,-0.718 0.469,-0.479 0.703,-1.138 0.703,-1.976 0,-0.8 -0.154,-1.555 -0.46,-2.266 -0.306,-0.71 -0.721,-1.259 -1.245,-1.646 -0.523,-0.387 -1.114,-0.581 -1.774,-0.581 -0.817,0 -1.457,0.24 -1.921,0.721 -0.464,0.481 -0.696,1.138 -0.696,1.972 0,0.809 0.156,1.569 0.466,2.282 0.311,0.713 0.73,1.26 1.258,1.64 0.527,0.381 1.112,0.572 1.755,0.572" /></g><g
           transform="translate(7.5349,15.1127)"
           id="g44"><path
             id="path46"
             style="fill:#6d51b9;fill-opacity:1;fill-rule:nonzero;stroke:none"
             d="M 0,0 C 3.3,-0.971 6.902,0.845 6.168,4.685 5.853,6.335 1.729,6.958 1.124,6.111 0.632,5.424 0.39,1.115 0,0 m -7.535,-8.079 3.277,18.768 c 0.109,0.125 2.587,0.529 3.045,0.584 4.59,0.548 12.831,0.353 13.775,-5.572 C 13.586,-0.72 8.755,-4.783 2.811,-5.385 2.003,-5.467 -0.393,-5.19 -0.831,-5.506 -1.352,-5.881 -1.049,-8.376 -1.786,-8.597 Z" /></g><g
           transform="translate(77.6882,12.6815)"
           id="g48"><path
             id="path50"
             style="fill:#6d51b9;fill-opacity:1;fill-rule:nonzero;stroke:none"
             d="M 0,0 C 1.249,-0.158 5.384,-0.148 4.801,1.958 4.29,3.803 -0.452,2.187 0,0 m -0.539,-4.841 c 0.572,-4.821 6.458,-3.887 9.949,-3.093 2.788,0.634 5.213,2.078 7.714,2.771 0.328,0.091 0.826,0.166 0.614,-0.345 -0.397,-0.961 -5.383,-4.441 -6.533,-5.027 -4.283,-2.18 -9.73,-3.028 -14.08,-0.539 -6.449,3.69 -4.44,13.725 1.344,17.038 C 3.414,8.795 11.73,7.577 10.727,0.425 10.049,-4.41 3.249,-4.708 -0.539,-4.841" /></g><g
           transform="translate(63.1716,27.7334)"
           id="g52"><path
             id="path54"
             style="fill:#6d51b9;fill-opacity:1;fill-rule:nonzero;stroke:none"
             d="m 0,0 -2.685,-14.783 5.239,6.719 h 7.661 L 2.76,-15.722 5.645,-22.31 c -0.227,-0.218 -5.971,-0.597 -6.273,-0.496 -0.646,0.214 -1.021,2.365 -1.461,3.111 -0.098,0.165 -0.015,0.524 -0.461,0.338 -1.535,-0.64 -1.702,-3.761 -2.154,-3.761 h -6.048 L -6.451,0 Z" /></g><g
           transform="translate(30.3003,14.7513)"
           id="g56"><path
             id="path58"
             style="fill:#6d51b9;fill-opacity:1;fill-rule:nonzero;stroke:none"
             d="M 0,0 C -0.558,0.46 -1.953,0.485 -2.607,0.207 -4.67,-0.67 -6.537,-7.485 -4.161,-8.592 -0.031,-10.516 2.001,-1.647 0,0 M -1.045,5.392 C 5.831,5.596 8.71,-0.114 6.809,-6.25 6.403,-7.558 5.282,-10.26 3.709,-10.164 l -14.933,0.959 c -2.567,6.919 2.846,14.379 10.179,14.597" /></g><g
           transform="translate(38.8443,4.6158)"
           id="g60"><path
             id="path62"
             style="fill:#6d51b9;fill-opacity:1;fill-rule:nonzero;stroke:none"
             d="M 0,0 C -4.438,9.54 5.425,17.451 14.643,15.046 15.092,14.579 13.389,10.789 13.3,9.945 9.739,11.059 5.893,9.198 5.766,5.251 5.626,0.864 8.974,1.392 12.229,2.149 L 12.231,0 Z" /></g><g
           transform="translate(98.9214,24.7756)"
           id="g64"><path
             id="path66"
             style="fill:#6d51b9;fill-opacity:1;fill-rule:nonzero;stroke:none"
             d="m 0,0 -0.804,-5.105 3.495,-10e-4 c 0.186,-0.187 -0.542,-4.273 -0.826,-4.686 -0.638,-0.929 -3.414,-0.128 -3.732,-0.435 -0.165,-0.159 -0.211,-3.006 -0.939,-3.765 -0.443,-0.462 -6.337,-2.913 -6.6,-2.671 l 1.343,6.447 -2.151,0.002 c 0.098,0.681 0.635,4.915 0.82,5.094 0.164,0.159 2.284,-0.117 2.408,0.012 0.12,0.127 0.072,2.937 0.591,3.444 z" /></g><g
           transform="translate(145.1572,7.0343)"
           id="g68"><path
             id="path70"
             style="fill:#6d51b9;fill-opacity:1;fill-rule:nonzero;stroke:none"
             d="m 0,0 c 8.894,-1.69 11.197,11.572 1.075,10.217 z m -1.477,-1.881 c -0.146,0.025 -0.469,0.172 -0.63,0.314 -1.171,1.035 1.465,11.375 1.035,11.784 -0.098,0.094 -0.983,-0.096 -1.08,-0.003 -0.11,0.106 -0.044,1.883 0.406,1.883 0,0 4.663,0.281 6.183,0 C 5.64,11.875 6.828,11.462 7.273,11.17 10.766,8.876 10.408,3.245 7.937,0.533 7.14,-0.342 4.463,-1.777 3.361,-1.881 c -1.374,-0.129 -3.606,-0.207 -4.838,0" /></g><g
           transform="translate(133.8675,12.4117)"
           id="g72"><path
             id="path74"
             style="fill:#6d51b9;fill-opacity:1;fill-rule:nonzero;stroke:none"
             d="M 0,0 C 5.902,-1.262 7.342,5.995 0.552,4.824 Z M 4.168,6.72 C 7.214,6.215 7.909,3.072 6.509,0.615 6.093,-0.114 4.648,-1.065 4.606,-1.237 4.557,-1.438 5.912,-4.949 6.055,-5.11 c 0.527,-0.597 1.344,0.107 0.936,-2.149 -3.947,-0.972 -3.108,3.341 -4.543,5.211 -0.187,0.244 -2.622,0.268 -2.717,0.167 -0.185,-0.196 -0.35,-5.182 -0.535,-5.379 -0.084,-0.088 -1.759,0.064 -2.153,10e-4 L -1.61,4.838 C -3.278,4.155 -2.747,6.72 -2.284,6.72 c 1.814,0 4.826,0.269 6.452,0" /></g><g
           transform="translate(121.5032,10.7984)"
           id="g76"><path
             id="path78"
             style="fill:#6d51b9;fill-opacity:1;fill-rule:nonzero;stroke:none"
             d="M 0,0 H 3.763 C 3.32,1.637 3.019,3.305 2.679,4.969 2.624,5.241 2.885,5.862 2.288,5.647 2,5.543 0.222,0.693 0,0 m 6.785,-3.717 c 0.16,-0.143 0.674,0.092 0.76,-0.193 0.516,-1.727 -0.78,-2.01 -2.193,-1.615 -0.976,0.272 -1.13,2.954 -1.332,3.9 -1.11,-0.159 -4.255,0.378 -4.964,-0.253 -1.225,-1.09 -0.887,-4.665 -4.164,-3.768 -0.035,1.483 -0.344,1.711 1.051,2.309 C -3.087,-2.02 1.106,7.946 1.656,8.288 1.953,8.473 3.643,8.419 3.904,8.071 4.597,6.599 6.25,-3.239 6.785,-3.717" /></g><g
           transform="translate(116.666,14.8293)"
           id="g80"><path
             id="path82"
             style="fill:#6d51b9;fill-opacity:1;fill-rule:nonzero;stroke:none"
             d="m 0,0 c -0.395,0.063 -2.068,-0.09 -2.152,0.001 -0.141,0.154 0.417,1.442 -1.014,2.078 -5.389,2.395 -10.096,-6.062 -5.419,-9.183 2.546,-1.698 4.724,-0.143 7.077,0.945 1.705,-1.595 -0.536,-2.549 -1.992,-3.11 -8.714,-3.361 -12.316,7.323 -6.155,12.07 C -6.466,5.258 0.853,5.501 0,0" /></g></g></g></g></svg>