<?xml version="1.0" encoding="UTF-8"?>
<svg xmlns="http://www.w3.org/2000/svg" xmlns:xlink="http://www.w3.org/1999/xlink" width="24px" height="24px" viewBox="0 0 24 24" version="1.1">
<g id="surface1">
<path style=" stroke:none;fill-rule:nonzero;fill:rgb(0%,0%,0%);fill-opacity:1;" d="M 9.566406 0.09375 C 9.1875 0.195312 8.695312 0.445312 8.4375 0.671875 C 7.757812 1.257812 7.351562 2.203125 7.425781 3.03125 L 7.457031 3.375 L 6.953125 3.191406 C 6.675781 3.089844 6.171875 2.910156 5.84375 2.789062 C 4.832031 2.421875 4.445312 2.375 3.875 2.558594 C 3.367188 2.726562 2.890625 3.125 2.65625 3.589844 C 2.464844 3.980469 1.546875 6.554688 1.546875 6.71875 C 1.546875 6.910156 1.679688 7.164062 1.828125 7.269531 C 1.894531 7.316406 4.402344 8.246094 7.402344 9.335938 L 12.859375 11.320312 L 7.507812 11.34375 C 2.175781 11.367188 2.160156 11.367188 2.03125 11.464844 C 1.960938 11.515625 1.851562 11.632812 1.796875 11.71875 L 1.6875 11.875 L 1.6875 17.011719 C 1.6875 22.621094 1.679688 22.449219 1.953125 22.917969 C 2.230469 23.386719 2.71875 23.773438 3.210938 23.910156 C 3.566406 24.007812 18.050781 24.007812 18.398438 23.910156 C 18.90625 23.765625 19.378906 23.386719 19.65625 22.917969 C 19.925781 22.457031 19.921875 22.523438 19.921875 18.039062 C 19.921875 15.429688 19.941406 13.921875 19.96875 13.921875 C 19.992188 13.921875 20.128906 13.964844 20.269531 14.019531 C 20.695312 14.175781 21.023438 14.132812 21.242188 13.890625 C 21.328125 13.796875 22.265625 11.289062 22.382812 10.832031 C 22.566406 10.117188 22.367188 9.382812 21.84375 8.855469 C 21.507812 8.515625 21.34375 8.433594 19.9375 7.921875 C 19.296875 7.6875 18.769531 7.484375 18.753906 7.476562 C 18.746094 7.460938 18.792969 7.410156 18.863281 7.355469 C 19.152344 7.125 19.527344 6.484375 19.667969 5.976562 C 19.753906 5.667969 19.753906 4.917969 19.664062 4.585938 C 19.210938 2.839844 17.296875 1.945312 15.671875 2.722656 C 15.347656 2.878906 15.136719 3.046875 14.109375 3.953125 C 13.539062 4.460938 13.425781 4.542969 13.398438 4.46875 C 13.378906 4.421875 13.308594 4.003906 13.242188 3.539062 C 13.085938 2.46875 13.046875 2.246094 12.933594 1.890625 C 12.679688 1.117188 11.929688 0.394531 11.109375 0.136719 C 10.65625 -0.0078125 10.003906 -0.0234375 9.566406 0.09375 Z M 10.902344 1.574219 C 11.207031 1.730469 11.492188 2.035156 11.597656 2.3125 C 11.648438 2.453125 12.046875 4.867188 12.046875 5.039062 C 12.046875 5.085938 9.601562 4.148438 9.445312 4.039062 C 9.027344 3.75 8.773438 3.21875 8.828125 2.738281 C 8.933594 1.710938 9.992188 1.117188 10.902344 1.574219 Z M 7.617188 4.925781 C 9.265625 5.527344 10.632812 6.027344 10.65625 6.046875 C 10.6875 6.074219 9.800781 8.59375 9.734375 8.652344 C 9.710938 8.679688 3.234375 6.34375 3.183594 6.285156 C 3.140625 6.25 3.863281 4.28125 3.976562 4.128906 C 4.078125 3.984375 4.335938 3.84375 4.5 3.84375 C 4.566406 3.84375 5.96875 4.332031 7.617188 4.925781 Z M 17.550781 4.003906 C 18.417969 4.429688 18.613281 5.578125 17.9375 6.273438 C 17.648438 6.570312 17.433594 6.671875 16.992188 6.695312 L 16.617188 6.710938 L 15.421875 6.28125 C 14.765625 6.042969 14.210938 5.832031 14.1875 5.816406 C 14.171875 5.796875 14.597656 5.394531 15.136719 4.917969 C 16.273438 3.914062 16.421875 3.828125 16.953125 3.859375 C 17.199219 3.871094 17.363281 3.910156 17.550781 4.003906 Z M 12.710938 6.78125 C 13.261719 6.980469 13.316406 7.011719 13.292969 7.097656 C 13.28125 7.152344 13.070312 7.742188 12.824219 8.414062 C 12.507812 9.289062 12.367188 9.628906 12.3125 9.617188 C 12.242188 9.609375 11.09375 9.191406 11.078125 9.167969 C 11.066406 9.164062 11.273438 8.578125 11.53125 7.875 C 11.789062 7.167969 12 6.585938 12 6.578125 C 12 6.535156 12.160156 6.582031 12.710938 6.78125 Z M 17.65625 8.585938 C 19.304688 9.183594 20.710938 9.710938 20.785156 9.765625 C 20.933594 9.871094 21.046875 10.101562 21.046875 10.3125 C 21.046875 10.445312 20.371094 12.398438 20.296875 12.484375 C 20.273438 12.511719 15.558594 10.832031 13.800781 10.167969 C 13.703125 10.132812 13.710938 10.097656 14.175781 8.816406 C 14.433594 8.09375 14.652344 7.5 14.65625 7.5 C 14.667969 7.5 16.015625 7.988281 17.65625 8.585938 Z M 8.710938 17.679688 L 8.71875 22.59375 L 6.179688 22.59375 C 3.34375 22.59375 3.421875 22.601562 3.203125 22.269531 L 3.09375 22.109375 L 3.09375 12.75 L 5.898438 12.757812 L 8.695312 12.773438 Z M 11.484375 17.671875 L 11.484375 22.59375 L 10.125 22.59375 L 10.125 12.75 L 11.484375 12.75 Z M 17.640625 13.0625 L 18.515625 13.378906 L 18.515625 22.109375 L 18.40625 22.269531 C 18.1875 22.601562 18.265625 22.59375 15.4375 22.59375 L 12.890625 22.59375 L 12.890625 17.703125 C 12.890625 15.015625 12.90625 12.796875 12.921875 12.78125 C 12.9375 12.765625 13.808594 12.75 14.855469 12.75 L 16.757812 12.746094 Z M 17.640625 13.0625 "/>
</g>
</svg>
