<svg width="50" height="63" viewBox="0 0 50 63" fill="none" xmlns="http://www.w3.org/2000/svg">
<path d="M40.375 19.8268C40.375 15.0889 38.7156 10.545 35.7619 7.19484C32.8082 3.84464 28.8022 1.96252 24.625 1.96252C20.4478 1.96252 16.4418 3.84464 13.4881 7.19484C10.5344 10.545 8.875 15.0889 8.875 19.8268C8.875 40.6684 1 46.6231 1 46.6231H48.25C48.25 46.6231 40.375 40.6684 40.375 19.8268Z" stroke="white" stroke-width="2" stroke-linecap="round" stroke-linejoin="round"/>
<path d="M29.1662 58.5325C28.7047 59.4349 28.0423 60.1839 27.2453 60.7046C26.4483 61.2253 25.5447 61.4994 24.625 61.4994C23.7052 61.4994 22.8016 61.2253 22.0046 60.7046C21.2077 60.1839 20.5452 59.4349 20.0837 58.5325" stroke="white" stroke-width="2" stroke-linecap="round" stroke-linejoin="round"/>
</svg>
