<svg width="180" height="180" viewBox="0 0 180 180" fill="none" xmlns="http://www.w3.org/2000/svg">
<rect width="180" height="180" rx="20" fill="#CB3023"/>
<path fill-rule="evenodd" clip-rule="evenodd" d="M124.521 14.1623C121.071 30.0406 119.712 37.3341 116.912 48.8303C114.224 59.8637 112.143 70.0996 108.543 75.0632C104.888 80.0989 100.014 81.1954 96.6951 81.5811C94.9768 81.7801 93.7239 81.8693 90.0025 81.8841C86.2805 81.8685 85.0284 81.7801 83.31 81.5811C79.9907 81.1954 75.1148 80.0989 71.4625 75.0632C67.864 70.0989 65.7809 59.8613 63.0912 48.8303C60.2921 37.3332 58.9306 30.0397 55.4837 14.1623C55.4837 14.1623 52.0446 14.3007 50.5221 14.4112C48.4636 14.5627 46.8523 14.7446 45.0967 14.9853C45.0967 14.9853 47.0751 47.6387 47.9712 61.473C48.9132 76.0246 50.5665 100.544 52.1207 119.059C52.1207 119.059 55.0079 119.533 59.8037 119.817C64.8476 120.116 67.0902 120.149 67.0902 120.149C69.1654 111.993 71.7313 100.674 74.6454 95.8462C77.014 91.9202 80.6624 91.5042 82.7312 91.2118C85.9808 90.7548 88.7212 90.6853 89.9908 90.7262C89.9946 90.7262 89.9995 90.7262 90.0034 90.7262C90.0074 90.7262 90.0138 90.7262 90.0161 90.7262C91.2857 90.6828 94.0276 90.754 97.2772 91.2118C99.3437 91.5042 102.994 91.9202 105.363 95.8462C108.277 100.674 110.843 111.993 112.92 120.149C112.92 120.149 115.162 120.114 120.206 119.817C125.001 119.533 127.889 119.059 127.889 119.059C129.442 100.544 131.097 76.027 132.041 61.473C132.937 47.6379 134.913 14.9853 134.913 14.9853C133.159 14.7446 131.548 14.5652 129.488 14.4112C127.959 14.3015 124.521 14.1623 124.521 14.1623Z" fill="white"/>
<path fill-rule="evenodd" clip-rule="evenodd" d="M164.356 33.44C162.316 12.7004 148.918 8.32077 137.156 6.28412C131.227 5.25717 120.697 4.38827 113.946 4.10244C108.046 3.71259 94.1305 3.51687 89.9992 3.51526C85.8703 3.51776 71.9538 3.71259 66.0543 4.10244C59.3031 4.38827 48.7726 5.25717 42.846 6.28412C31.0826 8.32079 17.6839 12.7005 15.6429 33.44C15.087 39.089 14.9276 46.4602 15.0283 54.3973C15.1965 67.5388 16.2892 76.4135 16.9148 82.5564C17.3446 86.7732 19.0503 99.4486 21.2411 106.005C24.2497 115.014 26.9544 117.638 30.1389 120.318C35.9608 125.222 45.5492 126.73 47.5927 127.109C58.419 129.119 80.3284 129.481 90.0001 129.468C99.6741 129.481 121.586 129.119 132.407 127.109C134.453 126.73 144.041 125.221 149.863 120.318C153.047 117.638 155.752 115.014 158.76 106.005C160.951 99.4486 162.655 86.7731 163.087 82.5564C163.712 76.4136 164.805 67.5388 164.971 54.3973C165.073 46.4602 164.914 39.0865 164.356 33.44H164.356ZM156.998 68.2775C155.808 84.8445 154.382 94.7791 152.342 101.941C150.55 108.214 148.331 112.428 145.089 115.457C139.678 120.512 132.226 121.598 127.853 122.27C118.408 123.717 102.501 124.22 89.9984 124.225C77.496 124.221 61.5908 123.718 52.1435 122.27C47.7735 121.598 40.3229 120.512 34.9126 115.457C31.6694 112.428 29.4491 108.211 27.6594 101.941C25.6184 94.7799 24.191 84.8445 23.0039 68.2775C22.2871 58.2914 22.4386 42.1117 23.5146 33.4163C25.1156 20.4509 31.349 13.9199 44.7071 11.4606C50.9406 10.3141 59.3197 9.50012 67.2715 9.09473C73.6477 8.65086 84.1416 8.42727 89.9993 8.48379C95.8592 8.42727 106.353 8.65086 112.727 9.09473C120.679 9.50172 129.058 10.3149 135.291 11.4606C148.649 13.9199 154.883 20.4485 156.488 33.4146C157.562 42.1117 157.711 58.2914 156.998 68.2775Z" fill="white"/>
<path fill-rule="evenodd" clip-rule="evenodd" d="M132.764 152.861V150.521L135.105 150.287C135.86 150.131 136.162 149.429 136.313 149.274L141.977 139.682C142.429 138.98 141.976 138.278 141.372 138.2L138.427 137.888V135.471H151.339C152.095 135.471 152.548 136.017 152.85 136.485L160.401 148.416C161.005 149.351 161.458 150.131 162.213 150.209L164.629 150.443V152.861H150.056V150.521L151.868 150.287C152.774 150.209 153.529 149.742 152.774 148.65L152.095 147.558H141.75L140.919 148.884C140.466 149.664 140.919 150.209 141.674 150.288L143.562 150.521V152.861L132.764 152.861ZM143.562 144.439H150.131L146.809 139.136L143.562 144.439Z" fill="white"/>
<path fill-rule="evenodd" clip-rule="evenodd" d="M123.099 135.471H106.487V137.888L108.526 138.044C109.356 138.2 109.658 138.746 109.658 139.526C109.658 140.305 109.658 148.26 109.658 148.884C109.658 149.585 109.356 150.209 108.677 150.287L106.487 150.599V152.861H123.099C130.801 152.861 134.123 149.04 134.123 143.893C134.123 139.37 130.801 135.471 123.099 135.471L123.099 135.471ZM120.531 149.507H116.228V138.824H120.531C124.685 138.824 126.346 139.76 126.346 144.205C126.346 148.571 124.685 149.508 120.531 149.507Z" fill="white"/>
<path fill-rule="evenodd" clip-rule="evenodd" d="M15.9514 152.861H29.4675V150.521L27.1267 150.287C26.5983 150.209 26.0696 149.898 26.0696 148.728V145.921H36.4898V148.572C36.4898 149.351 36.3389 150.131 35.4327 150.209L33.0919 150.443V152.861H46.608V150.443L44.1918 150.209C43.7387 150.131 43.2102 149.742 43.2102 148.806V139.76C43.2102 138.824 43.5121 138.2 44.2674 138.122L46.608 137.888V135.471H33.0919V137.81L35.4327 138.122C36.2635 138.2 36.4898 138.902 36.4898 139.76V142.411H26.0696V139.682C26.0696 138.668 26.5226 138.2 27.2023 138.122L29.4675 137.888V135.471H16.0268V137.888L18.2923 138.122C19.1228 138.2 19.4247 138.902 19.3494 139.76V148.572C19.3494 149.586 19.1228 150.209 18.2167 150.288L15.9514 150.521V152.861Z" fill="white"/>
<path fill-rule="evenodd" clip-rule="evenodd" d="M47.2122 144.127C47.2122 138.668 51.5161 134.847 61.0302 134.847C70.469 134.847 74.7727 138.668 74.7727 144.127C74.7727 149.663 70.469 153.485 61.0302 153.485C51.5161 153.484 47.2122 149.664 47.2122 144.127ZM61.0302 138.122C57.1794 138.122 54.9895 139.604 54.9895 144.127C54.9895 148.727 57.1794 150.209 61.0302 150.209C64.8059 150.209 66.9954 148.728 66.9954 144.127C66.9954 139.604 64.8059 138.122 61.0302 138.122Z" fill="white"/>
<path fill-rule="evenodd" clip-rule="evenodd" d="M75.5278 152.861H86.2503V150.521L83.985 150.287C83.3054 150.209 82.9276 149.664 82.9276 148.806V139.994L91.8384 152.159C92.1398 152.627 92.744 152.861 93.2726 152.861L101.73 152.861V139.681C101.73 139.058 101.881 138.2 102.711 138.122L105.052 137.888V135.471H94.3299V137.81L96.6708 138.122C97.5011 138.2 97.6524 138.98 97.6524 139.76V148.338L88.8179 136.251C88.4404 135.782 87.9871 135.471 87.383 135.471H75.5278V137.888L77.7178 138.122C78.5483 138.278 78.8505 138.668 78.8505 139.76V148.572C78.8505 149.663 78.5483 150.131 77.7178 150.287L75.5278 150.521L75.5278 152.861Z" fill="white"/>
<path d="M62.6504 176.485L61.3936 172.916H56.4805L55.2236 176.485H53L57.7812 163.582H60.1191L64.8916 176.485H62.6504ZM60.8486 171.106L59.627 167.59C59.5801 167.438 59.5127 167.224 59.4248 166.949C59.3369 166.667 59.249 166.383 59.1611 166.096C59.0732 165.803 59 165.557 58.9414 165.358C58.8828 165.598 58.8096 165.868 58.7217 166.166C58.6396 166.459 58.5576 166.735 58.4756 166.993C58.3994 167.25 58.3408 167.45 58.2998 167.59L57.0693 171.106H60.8486ZM74.8584 166.755V176.485H73.2324L72.9512 175.175H72.8369C72.6318 175.509 72.3711 175.787 72.0547 176.01C71.7383 176.227 71.3867 176.388 71 176.494C70.6133 176.605 70.2061 176.661 69.7783 176.661C69.0459 176.661 68.4189 176.537 67.8975 176.291C67.3818 176.039 66.9863 175.653 66.7109 175.131C66.4355 174.61 66.2979 173.936 66.2979 173.11V166.755H68.3721V172.723C68.3721 173.479 68.5244 174.044 68.8291 174.419C69.1396 174.794 69.6201 174.982 70.2705 174.982C70.8975 174.982 71.3955 174.853 71.7646 174.595C72.1338 174.337 72.3945 173.956 72.5469 173.453C72.7051 172.949 72.7842 172.33 72.7842 171.598V166.755H74.8584ZM81.4414 174.991C81.7109 174.991 81.9775 174.967 82.2412 174.92C82.5049 174.868 82.7451 174.806 82.9619 174.736V176.3C82.7334 176.4 82.4375 176.485 82.0742 176.555C81.7109 176.625 81.333 176.661 80.9404 176.661C80.3896 176.661 79.8945 176.57 79.4551 176.388C79.0156 176.201 78.667 175.881 78.4092 175.43C78.1514 174.979 78.0225 174.355 78.0225 173.558V168.328H76.6953V167.406L78.1191 166.676L78.7959 164.593H80.0967V166.755H82.8828V168.328H80.0967V173.532C80.0967 174.024 80.2197 174.39 80.4658 174.63C80.7119 174.87 81.0371 174.991 81.4414 174.991ZM93.5527 171.598C93.5527 172.407 93.4473 173.124 93.2363 173.751C93.0254 174.378 92.7178 174.909 92.3135 175.342C91.9092 175.77 91.4229 176.098 90.8545 176.327C90.2861 176.549 89.6445 176.661 88.9297 176.661C88.2617 176.661 87.6494 176.549 87.0928 176.327C86.5361 176.098 86.0527 175.77 85.6426 175.342C85.2383 174.909 84.9248 174.378 84.7021 173.751C84.4795 173.124 84.3682 172.407 84.3682 171.598C84.3682 170.526 84.5527 169.618 84.9219 168.873C85.2969 168.123 85.8301 167.552 86.5215 167.16C87.2129 166.767 88.0361 166.571 88.9912 166.571C89.8877 166.571 90.6787 166.767 91.3643 167.16C92.0498 167.552 92.5859 168.123 92.9727 168.873C93.3594 169.623 93.5527 170.532 93.5527 171.598ZM86.4951 171.598C86.4951 172.307 86.5801 172.913 86.75 173.417C86.9258 173.921 87.1953 174.308 87.5586 174.578C87.9219 174.841 88.3906 174.973 88.9648 174.973C89.5391 174.973 90.0078 174.841 90.3711 174.578C90.7344 174.308 91.001 173.921 91.1709 173.417C91.3408 172.913 91.4258 172.307 91.4258 171.598C91.4258 170.889 91.3408 170.288 91.1709 169.796C91.001 169.298 90.7344 168.92 90.3711 168.662C90.0078 168.399 89.5361 168.267 88.9561 168.267C88.1006 168.267 87.4766 168.554 87.084 169.128C86.6914 169.703 86.4951 170.526 86.4951 171.598ZM98 176.485H95.9258V162.809H98V176.485ZM103.019 166.755V176.485H100.953V166.755H103.019ZM101.999 163.029C102.315 163.029 102.588 163.114 102.816 163.284C103.051 163.453 103.168 163.746 103.168 164.162C103.168 164.573 103.051 164.866 102.816 165.041C102.588 165.211 102.315 165.296 101.999 165.296C101.671 165.296 101.393 165.211 101.164 165.041C100.941 164.866 100.83 164.573 100.83 164.162C100.83 163.746 100.941 163.453 101.164 163.284C101.393 163.114 101.671 163.029 101.999 163.029ZM111.052 166.571C112.147 166.571 113 166.855 113.609 167.423C114.225 167.986 114.532 168.891 114.532 170.139V176.485H112.467V170.526C112.467 169.77 112.312 169.204 112.001 168.829C111.69 168.449 111.21 168.258 110.56 168.258C109.616 168.258 108.96 168.548 108.591 169.128C108.228 169.708 108.046 170.549 108.046 171.651V176.485H105.98V166.755H107.589L107.879 168.074H107.993C108.204 167.734 108.465 167.455 108.775 167.239C109.092 167.016 109.443 166.849 109.83 166.738C110.223 166.626 110.63 166.571 111.052 166.571ZM121.3 166.571C122.167 166.571 122.911 166.749 123.532 167.107C124.153 167.464 124.631 167.971 124.965 168.627C125.299 169.284 125.466 170.069 125.466 170.983V172.09H118.971C118.994 173.034 119.246 173.76 119.727 174.27C120.213 174.78 120.893 175.035 121.766 175.035C122.387 175.035 122.943 174.976 123.436 174.859C123.934 174.736 124.446 174.557 124.974 174.323V176.001C124.487 176.23 123.992 176.397 123.488 176.502C122.984 176.608 122.381 176.661 121.678 176.661C120.723 176.661 119.882 176.476 119.155 176.107C118.435 175.732 117.869 175.175 117.459 174.437C117.055 173.699 116.853 172.782 116.853 171.686C116.853 170.596 117.037 169.67 117.406 168.909C117.775 168.147 118.294 167.567 118.962 167.168C119.63 166.77 120.409 166.571 121.3 166.571ZM121.3 168.126C120.649 168.126 120.122 168.337 119.718 168.759C119.319 169.181 119.085 169.799 119.015 170.614H123.444C123.438 170.127 123.356 169.697 123.198 169.322C123.046 168.947 122.812 168.654 122.495 168.443C122.185 168.232 121.786 168.126 121.3 168.126Z" fill="white"/>
</svg>
