<svg width="158" height="23" viewBox="0 0 158 23" fill="none" xmlns="http://www.w3.org/2000/svg">
<rect y="12.6261" width="11.4582" height="11.4582" rx="4" transform="rotate(-29.5134 0 12.6261)" fill="#6143B3"/>
<rect x="12.3331" y="5.64465" width="11.4582" height="11.4582" rx="4" transform="rotate(-29.5134 12.3331 5.64465)" fill="#6143B3"/>
<ellipse cx="26.0801" cy="18.4874" rx="3.91992" ry="3.91992" fill="#6143B3"/>
<path d="M149.049 20.0426C147.298 20.0426 145.742 19.6697 144.38 18.9238C143.034 18.1779 141.98 17.1483 141.218 15.8349C140.472 14.5053 140.099 12.9973 140.099 11.3109C140.099 9.60838 140.472 8.09229 141.218 6.76267C141.98 5.43306 143.034 4.40342 144.38 3.67375C145.742 2.92787 147.298 2.55492 149.049 2.55492C150.801 2.55492 152.349 2.92787 153.695 3.67375C155.057 4.40342 156.111 5.43306 156.857 6.76267C157.619 8.07608 158 9.59216 158 11.3109C158 12.9973 157.619 14.5053 156.857 15.8349C156.111 17.1483 155.057 18.1779 153.695 18.9238C152.333 19.6697 150.784 20.0426 149.049 20.0426ZM149.049 15.616C150.071 15.616 150.906 15.2187 151.555 14.4242C152.219 13.6297 152.552 12.5838 152.552 11.2866C152.552 10.4272 152.398 9.66513 152.09 9.00032C151.798 8.3193 151.384 7.79232 150.849 7.41938C150.314 7.03022 149.706 6.83564 149.025 6.83564C148.36 6.83564 147.76 7.03022 147.225 7.41938C146.69 7.79232 146.277 8.3193 145.985 9.00032C145.693 9.66513 145.547 10.4272 145.547 11.2866C145.547 12.5838 145.871 13.6297 146.52 14.4242C147.169 15.2187 148.012 15.616 149.049 15.616Z" fill="#6143B3"/>
<path d="M125.52 2.91976H131.551C134.049 2.91976 135.978 3.40621 137.34 4.3791C138.718 5.35199 139.408 6.71403 139.408 8.46524C139.408 9.56785 139.067 10.5326 138.386 11.3596C137.721 12.1865 136.805 12.827 135.638 13.281C134.486 13.7188 133.205 13.9377 131.795 13.9377H130.773V19.6535H125.52V2.91976ZM131.819 10.557C132.678 10.557 133.343 10.3786 133.813 10.0219C134.284 9.66514 134.519 9.14626 134.519 8.46524C134.519 7.78421 134.284 7.27345 133.813 6.93294C133.359 6.59242 132.695 6.42217 131.819 6.42217H130.773V10.5083C131.097 10.5407 131.446 10.557 131.819 10.557Z" fill="#6143B3"/>
<path d="M117.121 2.91976H122.739V19.6535H117.121V2.91976Z" fill="#6143B3"/>
<path d="M106.075 6.61675H102.596V2.91976H115.22V6.61675H111.742V19.6535H106.075V6.61675Z" fill="#6143B3"/>
<path d="M93.0544 20.0426C91.3032 20.0426 89.7465 19.6697 88.3845 18.9238C87.0387 18.1779 85.9847 17.1483 85.2226 15.8349C84.4767 14.5053 84.1038 12.9973 84.1038 11.3109C84.1038 9.60838 84.4767 8.09229 85.2226 6.76267C85.9847 5.43306 87.0387 4.40342 88.3845 3.67375C89.7465 2.92787 91.3032 2.55492 93.0544 2.55492C94.8056 2.55492 96.3541 2.92787 97.6999 3.67375C99.062 4.40342 100.116 5.43306 100.862 6.76267C101.624 8.07608 102.005 9.59216 102.005 11.3109C102.005 12.9973 101.624 14.5053 100.862 15.8349C100.116 17.1483 99.062 18.1779 97.6999 18.9238C96.3379 19.6697 94.7893 20.0426 93.0544 20.0426ZM93.0544 15.616C94.0759 15.616 94.911 15.2187 95.5596 14.4242C96.2244 13.6297 96.5568 12.5838 96.5568 11.2866C96.5568 10.4272 96.4027 9.66513 96.0946 9.00032C95.8028 8.3193 95.3893 7.79232 94.8542 7.41938C94.3191 7.03022 93.7111 6.83564 93.03 6.83564C92.3652 6.83564 91.7653 7.03022 91.2302 7.41938C90.6951 7.79232 90.2816 8.3193 89.9898 9.00032C89.6979 9.66513 89.5519 10.4272 89.5519 11.2866C89.5519 12.5838 89.8763 13.6297 90.5248 14.4242C91.1734 15.2187 92.0166 15.616 93.0544 15.616Z" fill="#6143B3"/>
<path d="M77.0702 20.0426C75.4325 20.0426 73.9569 19.6535 72.6435 18.8752C71.3301 18.0806 70.3005 17.0023 69.5546 15.6403C68.8087 14.2783 68.4358 12.7784 68.4358 11.1407C68.4358 9.56784 68.8087 8.12472 69.5546 6.81132C70.3167 5.49792 71.3707 4.46017 72.7165 3.69807C74.0624 2.93597 75.5947 2.55492 77.3134 2.55492C78.2539 2.55492 79.1619 2.66032 80.0375 2.87111C80.9293 3.08191 81.732 3.38188 82.4454 3.77104L80.8401 7.54099C79.7375 7.08697 78.7079 6.85996 77.7512 6.85996C76.5027 6.85996 75.5379 7.26534 74.8569 8.07608C74.1759 8.8706 73.8353 9.91646 73.8353 11.2137C73.8353 12.0568 73.9894 12.8189 74.2975 13.4999C74.6055 14.1648 75.0352 14.6917 75.5865 15.0809C76.1541 15.47 76.7945 15.6646 77.508 15.6646C77.8972 15.6646 78.2214 15.6322 78.4809 15.5673V11.6515L82.6886 11.165V18.7779C80.8564 19.621 78.9836 20.0426 77.0702 20.0426Z" fill="#6143B3"/>
<path d="M58.3944 20.0426C56.6432 20.0426 55.0866 19.6697 53.7246 18.9238C52.3787 18.1779 51.3248 17.1483 50.5627 15.8349C49.8168 14.5053 49.4438 12.9973 49.4438 11.3109C49.4438 9.60838 49.8168 8.09229 50.5627 6.76267C51.3248 5.43306 52.3787 4.40342 53.7246 3.67375C55.0866 2.92787 56.6432 2.55492 58.3944 2.55492C60.1456 2.55492 61.6942 2.92787 63.04 3.67375C64.402 4.40342 65.456 5.43306 66.2019 6.76267C66.964 8.07608 67.345 9.59216 67.345 11.3109C67.345 12.9973 66.964 14.5053 66.2019 15.8349C65.456 17.1483 64.402 18.1779 63.04 18.9238C61.678 19.6697 60.1294 20.0426 58.3944 20.0426ZM58.3944 15.616C59.416 15.616 60.251 15.2187 60.8996 14.4242C61.5644 13.6297 61.8968 12.5838 61.8968 11.2866C61.8968 10.4272 61.7428 9.66513 61.4347 9.00032C61.1429 8.3193 60.7294 7.79232 60.1943 7.41938C59.6592 7.03022 59.0511 6.83564 58.3701 6.83564C57.7053 6.83564 57.1054 7.03022 56.5703 7.41938C56.0352 7.79232 55.6217 8.3193 55.3298 9.00032C55.038 9.66513 54.892 10.4272 54.892 11.2866C54.892 12.5838 55.2163 13.6297 55.8649 14.4242C56.5135 15.2187 57.3567 15.616 58.3944 15.616Z" fill="#6143B3"/>
<path d="M38 2.91976H43.2536V15.9565H49.0666V19.6535H38V2.91976Z" fill="#6143B3"/>
</svg>
