<svg width="525" height="132" viewBox="0 0 525 132" fill="none" xmlns="http://www.w3.org/2000/svg">
<g clip-path="url(#clip0_1874_2230)">
<path d="M114.5 74.27C113.7 59.72 106.88 46.42 95.2899 36.83C84.6899 28.06 71.2599 23.38 57.1799 23.5L57.2099 46.96C57.3599 46.96 57.4999 46.95 57.6499 46.95C66.0999 46.95 74.0999 49.73 80.3499 54.9C86.8399 60.28 90.6599 67.62 91.0999 75.57C91.5399 83.52 88.5499 91.23 82.6799 97.29C76.5699 103.59 68.1299 107.34 58.9199 107.85C58.3699 107.88 57.8299 107.89 57.2799 107.9L57.2999 131.36C58.2599 131.36 59.2299 131.33 60.1999 131.27C75.3199 130.44 89.2899 124.17 99.5099 113.61C109.98 102.81 115.3 88.84 114.51 74.29" fill="#DC0019"/>
<path d="M56.9699 84.4C39.1999 84.42 24.3799 71.94 23.4999 55.78C23.0599 47.83 26.0499 40.12 31.9199 34.06C38.0299 27.76 46.4699 24.01 55.6799 23.5C56.2299 23.47 56.7699 23.46 57.3199 23.45L57.2899 -0.0100098C56.3299 -0.0100098 55.3599 0.0299902 54.3899 0.0799902C39.2699 0.90999 25.2999 7.17999 15.0699 17.74C4.59992 28.55 -0.720075 42.51 0.079925 57.07C1.64993 85.71 26.8599 107.88 56.9899 107.85C57.1299 107.85 57.2699 107.85 57.4099 107.85L57.3799 84.39C57.2399 84.39 57.1099 84.4 56.9699 84.4Z" fill="#DC0019"/>
<path d="M158.48 52.64C160.74 51.38 163.3 50.76 166.17 50.76C170.79 50.76 174.7 52.58 177.89 56.21L184.79 49.88C182.57 47.18 179.83 45.12 176.57 43.7C173.31 42.29 169.67 41.58 165.66 41.58C162.09 41.58 158.77 42.17 155.69 43.34C152.61 44.51 149.92 46.19 147.62 48.36C145.3 50.58 143.51 53.15 142.27 56.09C141.02 59.03 140.4 62.21 140.4 65.65C140.4 69.09 141.02 72.31 142.27 75.25C143.51 78.18 145.28 80.75 147.56 82.94C149.86 85.14 152.56 86.82 155.65 88.01C158.74 89.19 162.06 89.78 165.61 89.78C169.66 89.78 173.32 89.06 176.57 87.63C179.82 86.2 182.56 84.13 184.8 81.42L177.9 75.09C174.73 78.76 170.83 80.6 166.18 80.6C163.31 80.6 160.74 79.97 158.49 78.72C156.23 77.46 154.47 75.7 153.2 73.43C151.93 71.16 151.3 68.57 151.3 65.66C151.3 62.75 151.93 60.19 153.2 57.93C154.47 55.67 156.23 53.92 158.49 52.66" fill="#04003D"/>
<path d="M210.64 42.39L189.93 88.94H200.95L205.51 77.86H226.22L230.78 88.94H242.12L221.28 42.39H210.64ZM208.99 69.63L215.89 52.97L222.79 69.63H208.98H208.99Z" fill="#04003D"/>
<path d="M289.46 68.23C291.11 65.84 291.93 62.87 291.93 59.3C291.93 55.73 291.12 52.8 289.51 50.26C287.89 47.72 285.56 45.75 282.49 44.35C279.56 43.04 275.97 42.39 271.72 42.39H250.57V88.94H261.34V76.08H271.35L280.15 88.94H291.8L281.73 74.44C285.05 73.13 287.62 71.06 289.46 68.23ZM278.55 65.24C276.89 66.64 274.43 67.35 271.15 67.35H261.33V51.2H271.15C274.42 51.2 276.89 51.9 278.55 53.31C280.21 54.71 281.03 56.71 281.03 59.31C281.03 61.91 280.2 63.84 278.55 65.25" fill="#04003D"/>
<path d="M341.19 68.23C342.84 65.84 343.66 62.87 343.66 59.3C343.66 55.73 342.85 52.8 341.24 50.26C339.62 47.72 337.29 45.75 334.22 44.35C331.29 43.04 327.7 42.39 323.45 42.39H302.3V88.94H313.07V76.08H323.08L331.88 88.94H343.53L333.46 74.44C336.77 73.13 339.35 71.06 341.19 68.23ZM330.28 65.24C328.62 66.64 326.16 67.35 322.88 67.35H313.06V51.2H322.88C326.15 51.2 328.62 51.9 330.28 53.31C331.94 54.71 332.76 56.71 332.76 59.31C332.76 61.91 331.93 63.84 330.28 65.25" fill="#04003D"/>
<path d="M364.8 42.39H354.03V88.94H364.8V42.39Z" fill="#04003D"/>
<path d="M387.3 42.39H376.59V88.94H415.16V80.27H387.3V42.39Z" fill="#04003D"/>
<path d="M455.06 60.82H433.91V42.39H423.14V88.94H433.91V69.94H455.06V88.94H465.83V42.39H455.06V60.82Z" fill="#04003D"/>
<path d="M522.85 56.13C521.59 53.22 519.81 50.66 517.51 48.47C515.17 46.25 512.45 44.55 509.37 43.36C506.29 42.17 502.92 41.57 499.27 41.57C495.62 41.57 492.36 42.17 489.23 43.36C486.11 44.55 483.37 46.26 481.03 48.47C478.71 50.65 476.92 53.2 475.68 56.13C474.43 59.07 473.81 62.23 473.81 65.63C473.81 69.03 474.43 72.25 475.68 75.18C476.93 78.1 478.71 80.66 481.03 82.86C483.33 85.08 486.05 86.78 489.18 87.97C492.32 89.16 495.7 89.76 499.33 89.76C502.96 89.76 506.26 89.16 509.35 87.97C512.44 86.78 515.16 85.07 517.5 82.86C519.78 80.71 521.55 78.15 522.82 75.2C524.09 72.24 524.72 69.06 524.72 65.64C524.72 62.22 524.09 59.05 522.84 56.14M511.95 73.35C510.69 75.62 508.96 77.39 506.74 78.67C504.52 79.95 502.03 80.59 499.27 80.59C496.51 80.59 493.99 79.96 491.78 78.69C489.57 77.42 487.84 75.65 486.59 73.39C485.33 71.12 484.71 68.54 484.71 65.65C484.71 62.76 485.34 60.25 486.59 57.99C487.85 55.73 489.58 53.96 491.8 52.69C494.02 51.41 496.51 50.77 499.27 50.77C502.03 50.77 504.55 51.4 506.76 52.67C508.97 53.94 510.7 55.7 511.95 57.96C513.21 60.22 513.83 62.78 513.83 65.66C513.83 68.54 513.2 71.1 511.95 73.37" fill="#04003D"/>
</g>
<defs>
<clipPath id="clip0_1874_2230">
<rect width="524.73" height="131.33" fill="white"/>
</clipPath>
</defs>
</svg>
